HIERARCHY
ROOT Hips
{
  OFFSET 0 0 0
  CHANNELS 6 Xposition Yposition Zposition Zrotation Xrotation Yrotation
  JOINT Spine
  {
    OFFSET 0 10.1816 0.1315
    CHANNELS 3 Zrotation Xrotation Yrotation
    JOINT Spine1
    {
      OFFSET 0 10.0835 -1.0008
      CHANNELS 3 Zrotation Xrotation Yrotation
      JOINT Spine2
      {
        OFFSET 0 9.1 -1.3734
        CHANNELS 3 Zrotation Xrotation Yrotation
        JOINT Neck
        {
          OFFSET 0 16.6717 -2.5162
          CHANNELS 3 Zrotation Xrotation Yrotation
          JOINT Head
          {
            OFFSET 0 9.6179 1.685
            CHANNELS 3 Zrotation Xrotation Yrotation
            End Site
            {
              OFFSET 0 17.8152 2.585
            }
          }
        }
        JOINT LeftShoulder
        {
          OFFSET 4.5704 10.946 -2.628
          CHANNELS 3 Zrotation Xrotation Yrotation
          JOINT LeftArm
          {
            OFFSET 10.5924 -0.5246 -2.2321
            CHANNELS 3 Zrotation Xrotation Yrotation
            JOINT LeftForeArm
            {
              OFFSET 27.8415 -0.0001 0
              CHANNELS 3 Zrotation Xrotation Yrotation
              JOINT LeftHand
              {
                OFFSET 28.3288 0 0
                CHANNELS 3 Zrotation Xrotation Yrotation
                End Site
                {
                  OFFSET 0 0 0
                }
              }
            }
          }
        }
        JOINT RightShoulder
        {
          OFFSET -4.57 10.9462 -2.628
          CHANNELS 3 Zrotation Xrotation Yrotation
          JOINT RightArm
          {
            OFFSET -10.5928 -0.5248 -2.2321
            CHANNELS 3 Zrotation Xrotation Yrotation
            JOINT RightForeArm
            {
              OFFSET -27.8415 0 0
              CHANNELS 3 Zrotation Xrotation Yrotation
              JOINT RightHand
              {
                OFFSET -28.3288 0 0.0001
                CHANNELS 3 Zrotation Xrotation Yrotation
                End Site
                {
                  OFFSET 0 0 0
                }
              }
            }
          }
        }
      }
    }
  }
  JOINT LeftUpLeg
  {
    OFFSET 8.2078 -6.7517 -1.5996
    CHANNELS 3 Zrotation Xrotation Yrotation
    JOINT LeftLeg
    {
      OFFSET 0 -44.3705 0.2846
      CHANNELS 3 Zrotation Xrotation Yrotation
      JOINT LeftFoot
      {
        OFFSET 0 -44.4279 -2.9822
        CHANNELS 3 Zrotation Xrotation Yrotation
        JOINT LeftToeBase
        {
          OFFSET 0 -8.7287 10.7106
          CHANNELS 3 Zrotation Xrotation Yrotation
          End Site
          {
            OFFSET 0 -0.0007 9.2781
          }
        }
      }
    }
  }
  JOINT RightUpLeg
  {
    OFFSET -8.2078 -6.7517 -1.5996
    CHANNELS 3 Zrotation Xrotation Yrotation
    JOINT RightLeg
    {
      OFFSET 0 -44.3705 0.2862
      CHANNELS 3 Zrotation Xrotation Yrotation
      JOINT RightFoot
      {
        OFFSET 0 -44.4277 -2.9838
        CHANNELS 3 Zrotation Xrotation Yrotation
        JOINT RightToeBase
        {
          OFFSET 0 -8.7287 10.7106
          CHANNELS 3 Zrotation Xrotation Yrotation
          End Site
          {
            OFFSET 0 -0.0007 9.2781
          }
        }
      }
    }
  }
}
MOTION
Frames:	16
Frame Time:	0.0333333
-0.981216 93.4991 1.85843 1.63124 7.87736 -35.7093 4.76695 4.43966 3.97806 0.85897 2.25681 1.55391 0.806737 2.22202 1.63292 -0.65641 -1.97334 3.67644 -7.03047 2.75164 19.1942 -2.85486 9.1857 -11.2416 -55.0326 -32.0347 -39.9944 -0.000213623 5.78064e-14 -105.933 4.66119 14.76 0.207099 -1.02479 4.46265 14.199 55.2601 3.49341 55.3019 4.57764e-05 2.14402e-14 111.732 0.334326 2.35245 10.5394 28.4991 -39.7988 24.6241 -2.81854 40.2763 -2.78531 -8.36951 -2.65363 0.159122 2.43075e-07 -0.0104421 1.5818e-06 -18.0562 -13.6372 -16.9213 -3.55919 40.6641 -5.18361 22.158 -10.2338 1.06917 1.71924e-06 -15.8486 -1.39038e-05 
-0.994437 93.8837 2.17325 1.79071 7.3628 -38.5588 4.7113 4.33424 3.81147 0.828376 2.17792 1.35724 0.781593 2.147 1.43542 -0.403276 -2.12222 4.07865 -7.57158 2.49318 21.432 -2.76527 9.16935 -11.0772 -50.3786 -30.9253 -35.8812 -0.000274288 4.74032e-06 -98.936 5.26085 14.0788 0.773906 -0.868003 4.48446 14.1407 51.0538 4.61491 52.8484 4.68044e-05 -5.50596e-06 111.152 -2.06644 3.96952 11.1896 28.4931 -37.8384 24.0112 -3.29683 39.7798 0.193413 -9.03009 -3.07196 0.0312617 -5.29596e-07 -0.526376 1.28648e-06 -18.4653 -13.5707 -16.9842 -4.24322 39.2487 -2.18598 21.4401 -9.50223 0.840042 -2.01728e-06 -15.6008 -4.02171e-05 
-0.864202 94.4042 2.83067 2.10343 6.86995 -42.413 4.51687 4.15682 3.49157 0.742368 2.14679 1.05021 0.704958 2.12213 1.12721 -0.00025654 -2.12633 4.63128 -8.48414 2.08643 24.3973 -2.62437 9.15327 -10.9284 -45.2802 -28.6231 -31.4885 -0.00152214 -1.00531e-05 -89.6058 6.2998 12.7607 1.48806 -0.672887 4.51504 14.0327 45.5162 6.9228 49.5778 1.60769e-05 -4.92927e-06 108.847 -6.51648 5.82106 12.2583 28.2555 -35.516 23.2308 -3.81661 39.2676 4.04425 -9.8092 -3.77583 0.0187919 -6.98069e-07 -1.23183 1.58212e-06 -18.687 -13.5997 -16.7265 -5.65575 36.7854 1.60436 21.099 -8.14902 0.524001 2.63196e-06 -15.2851 1.29237e-05 
-0.622095 95.0228 3.7502 2.56416 6.33374 -47.1081 4.15296 3.92456 3.04781 0.613298 2.18059 0.682263 0.589341 2.16405 0.758197 0.504115 -1.99467 5.31523 -9.74695 1.48899 27.9239 -2.4613 9.13603 -10.7753 -40.0023 -25.1488 -26.82 -0.000184475 1.86059e-06 -78.3765 8.00294 10.8459 2.25379 -0.459687 4.55033 13.8933 39.302 10.4958 45.6944 -5.11288e-14 1.81934e-15 105.028 -12.7158 7.80393 13.8051 27.5798 -32.9475 22.3206 -4.15953 38.6631 7.73796 -10.6822 -4.73827 0.884432 -1.58544e-06 -1.97929 3.46085e-06 -19.0402 -14.2597 -16.3337 -6.90819 34.4039 2.92575 20.2388 -5.82694 -0.300741 3.84177e-06 -15.8104 1.04222e-05 
-0.30886 95.6835 4.8411 3.17969 5.59246 -52.4328 3.56429 3.66089 2.52071 0.45271 2.2889 0.310015 0.44594 2.28137 0.385655 1.05004 -1.76131 6.09531 -11.2973 0.68616 31.7656 -2.31228 9.11673 -10.6015 -34.8696 -20.5508 -21.9556 -0.000215416 1.87904e-06 -65.9423 10.456 8.44347 2.98452 -0.252192 4.5856 13.7435 33.3167 15.1953 41.524 4.8086e-07 -5.39614e-06 100.185 -20.0729 9.75954 15.8209 26.2386 -30.2354 21.3048 -4.23696 37.9043 10.1914 -11.4879 -6.02807 3.50245 -1.56746e-06 -2.55968 1.21812e-05 -20.2319 -18.1681 -16.4644 -7.1651 36.7476 -0.584639 18.2456 0.608827 -2.20799 0.587039 -16.2172 0.160669 
0.0673256 96.4086 6.07745 3.88536 4.57978 -58.1628 2.83439 3.39031 1.96132 0.275614 2.46057 -0.028646 0.288577 2.46211 0.0476658 1.58873 -1.4743 6.92554 -13.016 -0.270022 35.6632 -2.21131 9.09502 -10.382 -30.3641 -14.8859 -16.8398 -0.000204799 -4.26444e-09 -53.2774 13.2985 5.86297 3.54373 -0.0629124 4.61722 13.6088 28.3905 20.6447 37.3765 3.09595e-05 -9.70656e-06 95.214 -27.7117 11.5365 18.1761 24.0935 -27.4226 20.1 -4.07657 36.7525 10.7363 -11.9334 -7.65356 8.52079 2.97957e-06 -2.68566 1.01978e-05 -22.4601 -24.3208 -17.9162 -5.36157 42.7874 -1.69199 16.3522 9.09553 -4.25355 4.67687 -19.2957 1.34771 
0.468892 97.1863 7.41612 4.61398 3.24813 -64.1217 2.01534 3.13972 1.42234 0.117776 2.68595 -0.294223 0.151484 2.69643 -0.216065 2.08064 -1.13968 7.76053 -14.7664 -1.2789 39.4039 -2.19252 9.06737 -10.0362 -27.4244 -8.33836 -10.7984 -0.000207778 2.76588e-07 -41.7176 15.7579 3.72893 3.53442 0.114695 4.64196 13.5422 24.808 26.2143 33.3735 0.000137329 6.27885e-15 91.0651 -34.713 13.0641 20.6393 21.0531 -24.5984 18.398 -3.69564 35.0678 9.64361 -11.8817 -9.49694 15.9254 -1.78711e-06 -2.16535 8.90643e-06 -24.5821 -31.5252 -20.5825 -1.80552 52.3106 -3.37262 14.9788 12.998 -5.03447 1.71909 -16.268 0.453827 
0.80826 98.0556 8.8332 5.17754 1.51715 -70.2588 1.17572 2.96802 1.03532 0.0580467 3.00999 -0.329974 0.112774 3.02911 -0.248185 2.41191 -0.702153 8.53283 -16.4552 -2.2386 42.6126 -2.32488 9.02128 -9.38754 -27.7419 -1.89851 -2.47338 -0.000204025 -8.70876e-06 -33.4679 17.2365 3.02159 2.10646 0.273889 4.64945 13.661 22.2714 30.4174 29.5778 -4.85663e-05 -7.32254e-07 88.1987 -40.0294 14.3241 22.8355 17.0584 -21.5224 15.8662 -3.04822 32.5416 8.75911 -11.5772 -11.0244 24.2061 2.05879e-06 -1.73507 5.63338e-06 -23.914 -36.6032 -21.9901 3.36698 60.0842 -5.59964 14.2057 13.198 -4.41785 -1.33478e-05 -13.1803 2.13432e-05 
1.05109 99.0117 10.4107 5.30371 -0.661776 -76.5627 0.605085 2.97046 1.05207 0.16996 3.55714 0.178143 0.247284 3.58168 0.267737 2.34237 -0.141468 9.15723 -18.165 -3.15236 44.6201 -2.72512 8.94073 -8.29078 -32.7927 2.28079 8.6536 -0.00020596 -1.01197e-06 -30.8713 18.3408 4.51793 -1.58755 0.334179 4.61864 14.091 20.2996 30.4777 26.3265 -1.04566e-05 2.90232e-06 85.907 -42.6456 15.2754 24.2684 14.0342 -21.1594 13.4841 -2.42111 35.0869 9.56258 -13.1119 -6.88556 28.4487 -2.08048 -4.09363 -0.105163 -19.5977 -37.5821 -20.411 7.17905 62.7571 -5.23361 13.2728 10.5956 -3.21727 2.2164e-05 -11.9193 -2.89621e-05 
1.33615 100.15 12.1301 5.27555 -3.83887 -82.6126 0.153644 3.20621 1.58764 0.396606 4.43519 1.42853 0.500748 4.45616 1.53312 1.66019 0.376923 9.61438 -20.1279 -4.18181 44.9116 -3.49456 8.82892 -6.88435 -41.7762 2.44689 20.7404 -0.000201968 1.4173e-05 -34.116 20.7468 7.77649 -7.43333 0.144084 4.5325 14.8019 18.9314 23.8048 24.3357 1.57118e-05 5.28669e-06 82.8488 -42.1963 15.8636 24.5654 10.8263 -22.3569 11.9782 -2.13572 39.8269 7.29276 -14.8931 1.07352 30.0898 -3.57869 -9.84909 -0.486288 -15.2998 -34.9815 -17.339 6.75287 59.8138 -1.18757 10.6628 7.26302 -1.93255 3.28382e-06 -14.0243 -6.16437e-07 
2.08149 101.223 14.0192 5.95505 -8.40029 -87.4156 -0.31123 3.63628 2.49105 0.514145 5.60211 3.21709 0.650282 5.60708 3.34515 0.363613 0.512258 9.99238 -22.4367 -5.51268 43.6373 -4.65184 8.72126 -5.62171 -51.3515 -0.905302 30.5021 -0.000221932 -1.6669e-05 -40.6607 25.475 10.9114 -14.1385 -0.437315 4.39488 15.552 18.7746 9.95369 24.2772 -1.70576e-05 3.71677e-06 78.5231 -39.2523 16.0596 23.7086 8.36044 -27.6751 12.6429 -2.57117 49.0067 2.85298 -15.3451 10.0372 25.0529 -2.28867 -4.0757 -0.109662 -14.8533 -32.013 -15.3274 3.92389 53.2672 2.92702 6.05447 4.23827 -0.581735 -1.33788 -17.7974 -0.392065 
3.62938 101.843 16.0877 8.42088 -14.3491 -89.732 -0.870814 4.11328 3.32462 0.23348 6.8021 4.90041 0.403683 6.78372 5.05831 -1.28694 -0.0607724 10.4427 -24.8249 -7.12593 41.7686 -6.08543 8.67599 -5.05048 -57.619 -5.05024 35.5881 -0.000218488 2.22203e-06 -46.6154 31.4865 11.6392 -19.6056 -1.42898 4.23744 15.9938 20.1702 -8.12165 25.9071 9.0157e-06 4.22534e-06 74.1367 -35.3108 15.9755 22.1701 8.39731 -38.84 16.2302 -4.3685 63.4153 -0.374791 -11.3611 15.837 13.5691 4.88994e-06 -0.0483208 8.56518e-06 -19.3627 -32.0152 -16.1766 1.33856 46.4029 4.74446 0.48068 1.42185 0.451889 -1.27783 -19.242 -0.406295 
5.80879 101.796 18.2864 13.1825 -21.2096 -88.856 -1.50759 4.47047 3.65337 -0.603489 7.70527 5.73954 -0.403255 7.6692 5.92861 -2.93826 -1.39733 11.1013 -26.8009 -8.68914 40.6719 -7.57752 8.73981 -5.45713 -58.6823 -7.64476 35.9948 -0.000208438 1.66035e-06 -49.2518 36.7621 8.95026 -22.2128 -2.66294 4.10797 15.895 22.2481 -24.8925 27.4901 -2.26527e-05 -1.69174e-07 72.0783 -32.1866 16.0598 20.7405 13.6993 -54.6048 23.5373 -14.3534 81.2513 8.34935 -3.86295 15.2118 2.84903 -1.54286e-05 -0.899602 2.68186e-05 -28.9489 -35.595 -21.4948 0.377112 42.337 3.96241 -4.26616 -2.23432 0.870616 1.39434e-06 -17.1339 -1.81272e-05 
7.92968 101.241 20.4281 19.6467 -28.1726 -85.3523 -2.19974 4.63607 3.35153 -1.89497 8.15506 5.37671 -1.67375 8.11852 5.59346 -4.37569 -3.18644 12.0415 -28.1051 -9.68235 41.4302 -8.89218 8.91074 -6.66698 -55.5422 -8.81952 33.3799 -0.000202245 1.94105e-06 -48.2282 40.5686 3.46145 -22.1146 -3.81052 4.04718 15.2904 23.2569 -34.6761 26.4159 8.12018e-06 4.40156e-06 74.326 -31.2191 17.154 20.1653 33.7351 -70.4889 41.4604 -166.382 79.1375 163.235 1.93011 8.85793 -0.380789 -3.76159e-05 0.935229 4.26815e-05 -43.1613 -40.1097 -31.8978 1.01631 41.9804 0.978579 -6.31186 -8.12287 0.650722 -3.94975e-06 -12.4388 1.98054e-05 
9.26948 100.667 22.3929 26.1241 -34.2007 -81.5127 -2.62243 4.64305 2.72045 -3.28836 8.2348 4.06387 -3.05586 8.21535 4.30175 -5.57052 -4.91085 13.2371 -29.1243 -9.65443 44.3966 -9.87577 9.12905 -8.13033 -51.0632 -10.2619 29.9116 -0.000201447 -1.99404e-06 -44.6858 43.463 -3.21852 -20.7924 -4.47316 4.07387 14.4369 22.5219 -33.8348 21.3143 -5.25746e-05 1.99421e-06 81.1307 -32.9179 20.2609 20.9365 83.8557 -75.1789 80.8867 -173.054 63.3601 171.35 2.69374 -0.226503 2.57333 4.41685e-06 1.18138 -4.61346e-07 -57.2131 -42.0049 -43.3238 2.21717 40.7797 -3.11255 -4.57627 -10.4688 0.715527 -1.35163e-06 -10.7947 2.87142e-06 
9.63489 100.525 24.2734 31.1375 -39.0724 -79.6351 -2.63657 4.57524 1.91761 -4.34654 8.12868 2.5022 -4.10694 8.13231 2.75286 -6.5253 -6.23199 14.4997 -30.6417 -8.79121 48.8235 -10.5787 9.31499 -9.26502 -47.9835 -12.3938 27.4973 -0.000214826 -5.17279e-06 -40.0379 45.7942 -9.34825 -19.6274 -4.48313 4.17249 13.6073 21.5364 -24.1697 13.9613 0.000259391 3.31755e-06 90.2831 -36.6513 25.4437 23.0663 96.7322 -69.9515 74.3644 -173.92 56.9877 168.596 -0.742802 -10.6876 7.2797 -4.05676e-06 -0.521617 3.84347e-06 -66.5216 -42.1134 -50.8498 2.82593 37.1801 -6.96848 -0.145748 -10.5536 1.24823 1.44016e-06 -8.90635 1.62895e-05 
